<?xml version="1.0" encoding="utf-8"?>
<!-- Generator: Adobe Illustrator 23.0.4, SVG Export Plug-In . SVG Version: 6.00 Build 0)  -->
<svg version="1.1" id="レイヤー_1" xmlns="http://www.w3.org/2000/svg" xmlns:xlink="http://www.w3.org/1999/xlink" x="0px"
	 y="0px" viewBox="0 0 446 570" style="enable-background:new 0 0 446 570;" xml:space="preserve">
<style type="text/css">
	.st0{fill:#88A0C4;stroke:#000000;stroke-width:0.2;stroke-linejoin:round;}
	.st1{fill:#FFFFFF;stroke:#000000;stroke-width:0.2;stroke-linejoin:round;}
	.st2{fill:none;stroke:#000000;stroke-width:0.2;stroke-linecap:round;stroke-linejoin:round;}
	.st3{fill:none;}
</style>
<title>千葉県行政区画地図 (2013年1月1日)</title>
<desc>Author: Lincun / 更新：Knua</desc>
<g>
	<path class="st0" d="M210,289v-2l1-5l4-4l1-1l2,2l3-2l-5-2l1-3l-4-6l1-2h1h2l1-5l-2-4v-2l-5-4v-2h2h-1l-6-6l1-2l1-1v-4v-5l-3,1h-3
		l-3-3l-1,1l-6-3v-5l-3-3l-3,1l1,3l-5,8h-3v-3l4-3l-4-1v-2l-2,2l1-2l-3-3l-2,4l1-3l-3,3l-2-1l-1-3l-2-5l1-6l-1,5l-4-1h-1l2-1l-2-3
		l1-4l3-2l2,2l-2,2l2-2v2v-3l-6-3l-5-1v-4l-4-3l-7,10l-4-1l-6,8l-1-1v1l-2-1l-1,1l-1-1l-1,1l-2-1l-3,4l-5,8l23,25l1-3l-3-4l1-1l4,4
		l2-1l-1,4l-2,1l4,1l2-4v5l4-2v2l-3,1l1,8l5,2l-13,1v1l9,5h2l4,3l1,1l1-4l2,1l2,2l4,4l1-1l6,2l5-2l1-2l2,1l4-2l1,2l1-3l4,3l1,2l-1,3
		l-3,2l2,1h-1l4,8l8,1v3h3l-1-3l4,1V289z M141,246l2,9l9-1l-3-7L141,246z"/>
	<path class="st1" d="M74,551l7-1l8-4v-4l2,1l5-7l2-6l-2-7l4-9l2-8l6-7l16-13h1l7-4l6,2v-3h3v-1h-1l-1-1l2-1l1-2l5-1l1-1l-2-2l1-3
		l3-1h-1l1-1l-1-4l6-6l6-2l5,2l3-3l9,2l1-3l2-1l2,2l-1,2l2,4l4-2l6-1h3l-1-2l4-2l2-1l-1-3h3l1-1l3,1l2-1l1,3l7-4l-1-3l2-2h4l2,3h-1
		v4l2-2h4l2-11l4-4l1-2h-5l-6,1l-1-5l-3-2l1-4h1l-1-4l4-3h1l1-2l1,1l2-3l3,4l4-2l2,2l2-1l1,4l-2,3l3,1l2,2l1-1l3,2l4-5l-1-3l3-7
		l2-11l-2-2l1,1l-1-1h2l-2-1l-1-4l6-17v-3l-4-8l-2-1l-4-1l-1,1l-5,1l1-6l-12-1l-1,1l-6-1l-2,1l-4,3h-3l-3,7l-4,1l-2,2l2,8l-4,3v2
		l-4,1l-1,1l2,3l7,3l3,5l-2,2v4l-4,3l-6,1l3,4l-4,1v2l-2,1v9l-3,7l-4-4l-5,4l-4-2l-3,4h-1l-1,2l-5,2l-4-3v-4l-4-11l-1-1l-3-8v-2l4-8
		h2l-1-2l1,1v-1l4-1l2,2l1-4l1-7l4-1l5-4l-2-10l5,4l1-2l1,2l3-3l2,1l-2-5l-2-5l-3-3l-1-13v-2l-2,1l-2-2l1-4h2l-2-6h-2l-2-7l-3-5v-1
		l-3-5l4-2l-1-2h2v-3l-6-4l2-2l-1-3h5v-3l3,2l2-2v-2h3l-1-2l3-1l8,3l4-1l2,6l-3,4l1,1l1,8l3,3l1,3l1,1l-1,5l-5,3l1,1l2-1v3l2,1l6-3
		l1,3l-2,3l2,4h9l1-1l2-4h3l-3-5v-1h2l2-1v-5h4l1-1l-2-2l2,1l-1-2h4l1-3l-3-1v-2l1-2l-1,1l1-4l2-1l1-3l3-2v-4h4v3h2l2-3l-1-6l-2-3
		l-6,1l-2-2l-2,6l-8-5l2-1l-1-2l-3,1l-1-1l-7,2l-5-1l-4,3v-3l-4-1l1,3h-3v-3l-8-1l-4-8h1l-2-1l3-2l1-3l-1-2l-4-3l-1,3l-1-2l-4,2
		l-2-1l-1,2l-5,2l-6-2l-1,1l-4-4l-2-2l-2-1l-1,4l-1-1l-4-3h-2v1l-6-3l-4,2v2l2-1l-2,1l2-1l1,1l-2,2l4,2l-2,1l-8-7l-2,2v3l-2-2l-3,4
		l2,2l-1,2l-3-2l-4,6l3,3l-1,1l-3-2l-4,5l4,3v1l-5-2l-2,3l1,2l-1-1l-2,2l3,1l1,6l-5-5l-4,2l2,3l-1,1l-2-3l-2,1l3,6l-2,2v-2l-3-8
		l-6,3l3,9l-7,2l-1-4l2,2l2-2v-3l-5,1l-1,6h-3l-8,2v-1l-6,5v3l-1,2l2,2l-2-2v2l1,1l-1,1l3,8l4,1l1,1l-1,2h-1l-6,3v1l2-1l1,2l-1,1
		l-1-1h-5l4,6l-4-2l-9-2l-6-4l-3,4l6,5l1,2l-2,1l-2,1l-3-6l-6,6l3,4h3v2l-6,4v-1l-2,1l1,3l-2,1v-2l-3,2l-8,1l18,6l7,6v4l-2-1v3l6,8
		l2,5v10l-5,3l-9,5l-3,4l-2,7v4l2,2l-2,4l4-1l10-3l7,4l5-2l4,2l5,8h7l-1,3v1l-1,1l-1,3l-2,3h-7l-7,2l-4-1l-7,2l-1,3l-3-1l-1,1l2,7
		l-1,3l-7,2v2v1l2,2l2,7l-2,4l-3-1l-1-2l-2,3l6,3l3-1l3,4h3l3,6l-1,7l-1,3l-4,1v-3h-2h-5l1,2l-2,4l-8,2l-5,1l-4-3l-3,2h-2l-2-2l-1,2
		l1,2l-1,2l3,3l3,2l4-1l15,9l2,4l-2,3h2l-1,4l2,1l3,3l9-1l8,1h1v2l2-3H74z M258,282l2-4l-4-3l-4-1l2-2l1,1v-3l2,3l3-1l2,2l2-6l-1-5
		h3l1-3h2v-4l2-1l11,10l8-12l12-13l-6-6l-4,3l-3-3l2-4h2v-3l-2-2l-3,2l-8-5l5-5l-1-2l-2,1l-7-4l-3,3l-4-8l-6-1l-2,2l-4-3l2-5h-4v2
		l-2-1l-2-2l-1,2l-2-4l-1,1l1-1l-2-2h5l1-4l-3-1v-4h-3l-1-1l1-2v-4h2l5,7l1-1l-2-4v-3h-1l1-1l2,2l2-2l3,1l-1-5l-1-1l-4-1h3l1-3l-4-1
		l3-1l2-3v-4l2-1h2l2,5l7-3l-2-2l4-1v-7l3-1l6,4l-1,3h4h2l1-3l4-2l3,3l-1,3h2l-1,2l8,1l4,4l2-1l3,6l-5,2l-2-2l-1,3l-2,1l-3-4l-4,1
		l1,3l-1,8l-6,4v2l3,4l3,3l-2,3l2,6l4,1l1,2l-2,1l2,1l3-3l2,5l4,1l-4,5l7,9l3,4l24-20l14-9l15-5l5,1l3,4h3v-2v2l-2,1v2l3-3l5-1l3-2
		l17-6l8-1l3,1v3l1,2l1-1l1,2l7,2l-1-4l3-2l-2-3l2-2l-1-4l1-3l-3-5h-4l-1,2l-4,1l-6-1l-4-2l-25-18l-5-6l-3-6l-10,5l-1,3l4,1v3l2,1
		l-2,4l-4-4l-3,1l1,2l-3,2l-1,3l-7-11v2l-2-1l-3,1l-3-4l-2,1l-1-2l1-1l3-2v-2l3-1v-7l2,1l1-1v-4l-2-5l1-4l-6-2l-1-2l-6-12l-5-5l-4-2
		l-3-5l-16-10l-8-8l-5,6l-1,6h-2l-1,2l1,6l5,4l-7-2l-10-8l-3,6l-5,1l1,2l-3,2l-1,4l-1,9l6,1v2l-1,2h-4l-1,1v-3h-2l-6,6h-3l2-1l-2-1
		h2v-8l-3-5l-2,1l-4-6l1-2l-7,3l-3,6l-10,8h-5l-7-3l-3,5v4l-2,1v2l2-1l2,8l-3,5l-3-2l-5,4l-1,6l-1-9h-2v1l-3-1l3-3l-4-2v-4l-13,2
		l-11-4l-4,1l-3-1l-7-12l-13-6l-7,4l-4-6l-11-5l-5-5l-8,1L94,91l-5-2l-2-5l2-5l-2-3h-3l-8-4l-5-4l-4-11L47,37l-4-5l-3-12l-5-4l-3,2
		l-1,3v1l5,13l6,8l4,5l-1,4l1,9l-1,3l4,6v5l3,1v4l5,10l5,3l5,8l5,9l3,12l-4,16l1,5l-1,11l2,5v2l-4,3l-1,2l4,8l4,4l-2,6l2,3l5,6l1,4
		l-4,6l-8,3v2v1l-1,12l-3,2l1,1l-2,2v4l6,1l2-1l1,3l16-10l-8-7l4-5l6-1v-2l-6,2l1-3l2,1l3-3l2,4l4-4l2-1l6,1v2l2,2h-2v4l6-1l1,2h-6
		v3l7-2l5,3l5-8l3-4l2,1l1-1l1,1l1-1l2,1v-1l1,1l6-8l4,1l7-10l4,3v4l5,1l6,3v3v-2l-2,2l2-2l-2-2l-3,2l-1,4l2,3l-2,1h1l4,1l1-5l-1,6
		l2,5l1,3l2,1l3-3l-1,3l2-4l3,3l-1,2l2-2v2l4,1l-4,3v3h3l5-8l-1-3l3-1l3,3v5l6,3l1-1l3,3h3l3-1v5v4l-1,1l-1,2l6,6h1h-2v2l5,4v2l2,4
		l3,3l5-2v1l3-1v3l4,5v3l1-1l2,1l1-3l3,2l-1,1l3,1l-1,5l1,2l8,2l-1,5h2l2-5l4,2L258,282z M251,270l2,1l-1,2L251,270z M98,205l-2,3h1
		l1,1h3l3,1l-3-3h3l-1-1L98,205z M205,185l-1-2h2l-1-4l3-3l-1-4l6-1l1,3h3v-3l3,2l1,2l1,4h2h-5l-3,4h2l1,5l2,2l-4,4l-2,1l-3-2l-1,2
		l-3,2l-2-7h-3v-2l-3-2l4,1L205,185z M346,153h1l2-2v-2l-1,3L346,153z"/>
	<path class="st1" d="M51,464l1-1l3,1l1-3l7-2l4,1l7-2h7l2-3l1-3l1-1v-1l1-3h-7l-5-8l-4-2l-5,2l-7-4l-10,3l-4,1l4,2l4,9h-2l1,2l-5,6
		l2,1l-1,1l-1,4H51z M179,433l1-2h1l3-4l4,2l5-4l4,4l3-7v-9l2-1v-2l4-1l-3-4l6-1l4-3v-4l2-2l-3-5l-7-3l-2-3l1-1l4-1v-2l4-3l-2-8l2-2
		l4-1l3-7h3l4-3l2-1l6,1l1-1l12,1l-1,6l5-1l1-1l4,1l-2-8v-15l-3-4l-2,2l-5-1l-3,4h-2l-4-2v-3l-3,2l-4-2h-3l-2,4l-1,1h-9l-2-4l2-3
		l-1-3l-6,3l-2-1v-3l-2,1l-1-1l5-3l1-5l-1-1l-1-3l-3-3l-1-8l-1-1l3-4l-2-6l-4,1l-8-3l-3,1l1,2h-3v2l-2,2l-3-2v3h-5l1,3l-2,2l6,4v3
		h-2l1,2l-4,2l3,5v1l3,5l2,7h2l2,6h-2l-1,4l2,2l2-1v2l1,13l3,3l2,5l2,5l-2-1l-3,3l-1-2l-1,2l-5-4l2,10l-5,4l-4,1l-1,7l-1,4l-2-2
		l-4,1v1l-1-1l1,2h-2l-4,8v2l3,8l1,1l4,11v4l4,3L179,433z M249,427l2-4l-3-2l-1,1l-2-2l-3-1l2-3l-1-4l-2,1l-2-2l-4,2l-3-4l-2,3l-1-1
		l-1,2h-1l-4,3l1,4h-1l-1,4l3,2l1,5l6-1h5l2-2l7,1L249,427z M256,322l2-8l4-15l6-12l6-12l6-6l2-4l-11-10l-2,1v4h-2l-1,3h-3l1,5l-2,6
		l-2-2l-3,1l-2-3v3l-1-1l-2,2l4,1l4,3l-2,4l-1,1l-4-2l-2,5h-2l1-5l-8-2l-1-2l1-5l-3-1l1-1l-3-2l-1,3l-2-1l-1,1v-3l-4-5v-3l-3,1v-1
		l-5,2l-3-3l-1,5h-2h-1l-1,2l4,6l-1,3l5,2l-3,2l-2-2l-1,1l-4,4l-1,5v2l4-3l5,1l7-2l1,1l3-1l1,2l-2,1l8,5l2-6l2,2l6-1l2,3l1,6l-2,3
		h-2v-3h-4v4l-3,2l-1,3l-2,1l-1,4l1-1l-1,2v2l3,1l9,2v3L256,322z M302,240l12-11l-3-4l-7-9l4-5l-4-1l-2-5l-3,3l-2-1l2-1l-1-2l-4-1
		l-2-6l2-3l-3-3l-3-4v-2l6-4l1-8l-1-3l4-1l3,4l2-1l1-3l2,2l5-2l-3-6l-2,1l-4-4l-8-1l1-2h-2l1-3l-3-3l-4,2l-1,3h-2h-4l1-3l-6-4l-3,1
		v7l-4,1l2,2l-7,3l-2-5h-2l-2,1v4l-2,3l-3,1l4,1l-1,3h-3l4,1l1,1l1,5l-3-1l-2,2l-2-2l-1,1h1v3l2,4l-1,1l-5-7h-2v4l-1,2l1,1h3v4l3,1
		l-1,4h-5l2,2l-1,1l1-1l2,4l1-2l2,2l2,1v-2h4l-2,5l4,3l2-2l6,1l4,8l3-3l7,4l2-1l1,2l-5,5l8,5l3-2l2,2v3h-2l-2,4l3,3l4-3L302,240z
		 M221,190l-2-2l-1-5h-2l3-4h5h-2l-1-4l-1-2l-3-2v3h-3l-1-3l-6,1l1,4l-3,3l1,4h-2l1,2l-1,2l-4-1l3,2v2h3l2,7l3-2l1-2l3,2l2-1
		L221,190z M365,163l2-4l-2-1v-3l-4-1l1-3l10-5l-2-8l-6-5l-8-4l-10-2l-1,4l2,5v4l-1,1l-2-1v7l-3,1v2l-3,2l-1,1l1,2l2-1l3,4l3-1l2,1
		v-2l7,11l1-3l3-2l-1-2l3-1L365,163z M346,153l2-1l1-3v2l-2,2H346z M203,152l1-6l5-4l3,2l3-5l-2-8l-2,1v-2l2-1v-4l3-5l-4-1l-9,6
		l-7,3l-7-4l-4,1l-13,7l11,4l13-2v4l4,2l-3,3l3,1v-1h2L203,152z M257,128l6-6h2v3l1-1h4l1-2v-2l-6-1l1-9l1-4l3-2l-1-2l-4,2l-9-1
		l-7,3h-1l-1,2l4,6l2-1l3,5v8h-2l2,1l-2,1H257z M251,270l1,3l1-2L251,270z M227,328l3,1l-1-2L227,328z"/>
	<path class="st1" d="M262,299l6-12l-3-2v-1l-7-2l-1,1l-4-2l-2,5h-2l1-5l-8-2l-1-2l1-5l-3-1l1-1l-3-2l-1,3l-2-1l-1,1v-3l-4-5v-3
		l-3,1v-1l-5,2l-3-3l-1,5h-2h-1l-1,2l4,6l-1,3l5,2l-3,2l-2-2l-1,1l-4,4l-1,5v2l4-3l5,1l7-2l1,1l3-1l1,2l-2,1l8,5l2-6l2,2l6-1l2,3
		l1,6L262,299z"/>
	<path class="st1" d="M254,338v-6l2-10l-9-2v-3l-9-2l-1,3h-4l1,2l-2-1l2,2l-1,1h-4v5l1,2l-3-1h-2v1l3,5l4,2l3-2v3l4,2h2l3-4l5,1l2-2
		L254,338z"/>
	<path class="st2" d="M94,91l-3,4l-3,2l-2,2l-3,1v7l-3,1l2,2l4,5v-3l-3-4l3-1l3,5l-2,1l4,1v6l3-1h-2l-2,3l-2-2l-3,3l1,2l1-2h4l2,3
		h-1h-3l-1,3l5-2l3,9l-1,1v-2l-1,1l-2-1l-1,1l3,3l3,9h3v3l4,2l3-5l2,1l-1,1l1,1l2-1v2l1-2l6,2l1,2h-1l4-2l-4,7l4-7l2-7l6-8l2-1l7,2
		l4-1l2,3l6-3l1-6l-17-4l-3,2l-5-4l-4,2l-2-2l-6-1l-6-4l1-2l-2-2l2,1l3-3h2l3-3h-2l2-2l1,3l4-5 M83,100l-3-2v2l-3-1l-1,1l-9,1
		 M275,149v-2l6-4l-5,1l1-4l5-4l-3-3l2-2l1,1l1-3h-3l-5-8l-2,2l-2-1 M165,132l-5,2l-4-3l-1,1l-1-3l-2,2 M91,136h-2l-3-7l-4,2l-2,4
		l-5,3l1,1l-5-1 M205,179l-18-12l-7,9l-7-2l-6-4l-4-3l-9-6l-7-1l2-4l3-4l-9-7l2-5 M207,172l-2-4l1-6l-4-5l1-5 M111,152l-1,1l2,2
		l-2,2l-2-1l-6,1l-2,1v3h2l4,1v2l-3-1l-2,8l1,1v3l3-2v3h1l3,2l5-1l1,2h1h-1l-1-2l1-2l3-4l-1-2l3,1l2-2l-3-1l-2-1l5-5l-4-2 M147,160
		l-3-1l-6-7l-2,2l-2,9l-8,4l-3-2l-4,2 M387,197l-2-2l-2,1l-1-2v1h-2l-2-1l2-7h1l-1-1l2-1l-1-6l-1,2l2-5l-3,5l-3,2l1-2h-3v-6l1-3
		l-1-2l-6-1v-5l-3-1 M338,155l1,2l-4,3h-3l-2,4l-2-4l-3,4l-5,3h-1l-3,5l-2,1l-2-2l-1-2 M104,172l1,1L104,172 M103,163h-6l-1,2h-3
		l1,4l-4,2h2l-1,3l-1,1l-4-2l1-2v-1l-4,1l1-2l-6-3l-2,6l-4,2 M167,170l-6,3l4,1l-3,6l1,5l-6,4l3,1l-1,1l3,4l-1,3 M245,183l-2-1l1-4
		l-3-1l4-2l-4,2l-5-7l-5-3l-3-5l-3,7v3l-4,3 M106,173l2,4h3v-3l-2-2L106,173 M338,209l-1-3l-4,1v-6l-3-1l1-4v-3h-2v-2l-3,2v-2l-4,2
		l-1-2l4-3l4,1v-7l1-2l-4-2v2l-2-1l-1,1l-3-1l-3,1v-1l-1-1l3-2l-3-4 M256,205l-3,2l-5-3l-2,2l1-1l-2-2l-5,1l-3,3l-9-5l-2-4l2-5l-2,2
		v-1l-3,1v-4l-1,2l-1-2v-1 M144,159l-2,6l2,4h-6l2,3l-5,4l2,3l-2,1l-1,7l3,2l-2,3l1,1l6,2l-3,1l1,3h1 M98,205v-2l-1-8l-5-3l-3,3l2-7
		l2,1l3-1l1-7l4,1l2-1l-1-6 M217,194v2l1-1l-1,1h2l2,1h-3v1l-2-1v4l-3,1l2,9l-2-6l-2,1l2,3l-1,2v-4l-2-2l-1,2l1,2l-2,3l-2-1l-1,2
		l6,4l1-1v3l-5-4v2l-2-3l-3,5v2h2l-1,1l2-1l-1,2l1,7 M136,193l-2,1l-1,3h1v4l-3-3l-2,2l-2-2h-3l-2,3l-7-3l-4,8l2,4l-1,2 M189,217v-4
		l-2-4l1-2l-3-2v-3l2-4l-1-5l-4,3l-1-1l-5,4l-1-2l-2,2l-2-2l-1,4l1-3l-6-2v4l2,1 M98,205v4 M237,207l1,2l-4,3l6,1v3l-3-2h-5l-1,2
		l-1-1v4l-2,1l2,2l-2,2l3,3l2,3l-1,2l3,2l-3,2h1l-2,2l3,1l2-1l2,1l1-2l3,4l4-3l1,2h4l1,1l-1,4l3,3l3-2l1,1l2-2l2,2l1-4h3l3,13
		 M82,216l-9-8l-3,1 M228,233h1H228 M228,236l3-1L228,236 M216,253h2l8-5l8-1l-1-2l-3,1l-1-5h-4l-3,3l2-4l4,1l3-2l-2-1v-1v1
		 M230,237l1,1v-2L230,237 M231,227l-1,3l-4-3l-3,3l3,3l-3,2l1,2l1-1l1,2v1l3-2 M204,288l-3,4v2 M162,406l-2-3l-5-5l-1-11l1-4l-2-3
		v-5l2-6l-1-1l-4,1l-2-3h3l-1-2l5-4l3-6l-4-6l1-2l-6-9h-1l1,3l-1,1l-4-2l1-3v-1v-3l-2-1l2-4l-1-6l-3-5l-8,3l-10,1l3-3l1-3l-7-13
		l-1-1 M145,336l-2,2l-2-1l-5,1l-3,2l-5-1l-2,4h-2l-1,5h-3v3h-2l-2,4h-4l-1-2v-1l-2,1l2-2l1-3l-2-3l3-8l-5-4l3-1l3,1l1-5l-10-2l-3,1
		l-1-1l1-3l-3-2h-1v3l-3,2l-6-5l3-3v-7 M58,356h1H58 M151,366l-2-3l-5-2v-1l-2-2v-4l-2,1h1h-4l-7-5l-2,2l1,2h-2v4l-8,4v2l-3,5l-5-9
		l-1,9l-3-4v2l-2-1l-1,2l-3-1l-3-6l-5,1l-5-4h-5l-3-1l-4,2l-2-1v-4l-4-7 M170,428l-6-2l-3-2l-3,1l-3-1l-2,4h-6l-1,4l-2,2l-6-3l-9,6
		l-6,1l-2-2l-5,4l-8-1l3-7l-2-4l1-3l-1-4l-3-3l-1-5l-2-1l-1-13l-2,3l-3-2l-2,1h-2l-1-4l3-1v-2l-4-3l-3,1v-2l-7-2l-2-5v-3l-4-1l-1-4
		l-4-1l-2-8l-6-5v-3l-5-5 M227,413l-4-5l-5-2l1-3h-2l-2-3l-2,1 M188,458v-5l2-4h-2l2-3l-4-8l-2-5h-5 M108,439l-10,1h-7l-3,4l-2-1v4
		 M124,486l-2-2l2-3l-2-1l-2-7l-2-1v-3l-5-3l-4,1l2-3l-2-2l1-5h-5l-1,5l-3-2l-1-2l-4,1l-4-6l-5,1l-2-3 M46,548l10-1l3-4l2,1l6-1l5-5
		l-1,3l1,2l3-3l6,1l1-2l1-5l-7-3l1-2h-2v-3l3-8l7-2l1-4l3-5l-1-1l-1-6v-2l-2-1l-4,4h-5l-1,4h-7l1-5h2v-2l-4,1l1-13l-1-2v3l-7,5v1
		l-5,1h-5 M288,187h-2v1l-5,12l-3,1v-3l-2-1l-2-6l-6-3l-1-2l2-3l-4-11l1-7l-4-1l-3,1l-1-2h-1 M276,197l-4,1l-8,5l-2,3 M268,287l-3-2
		v-1l-7-2 M262,299l-12-2 M206,319l-6-1l-6,4h-4l-2,3v4l-2,1v-2l-3,3l1,3 M239,339l-4,3l3,2l-1,2l-2,4l1,1l-1,4 M223,338l-1,2l2,5
		l-1,2l-11,2l-2-1l-1,2l-4,8h-2l-1,6v1l1,2h1l3,2h3 M202,364l-1-1l-8,5"/>
	<path class="st1" d="M187,165l-9,10l-5-1l-9-6l8,7h5l2,4l7-2l-3-2l3-6h2l4,2l1-2L187,165z M119,126l4,2l4-2l5,5l3-2l-1-2h-4l-3-3
		l-4,1l-14-4v1l5,4H119z M168,349h-4v2L168,349v3l-3,1l1,4l4-6L168,349z M185,296l-1,7h2l-1-3l4,3l-2-1l1-2l-3-1l1-2l2,2L185,296z
		 M118,422l-2,2l2-1l1,2L118,422z M117,423h2v1L117,423z M122,413l-1-1l1,4l1-2v2l2-1l-2-1v-3l-3-1l3,2v3L122,413z M146,408l-1-2h-2
		l-1,2v-2l-2,3h-1l-2,2l5-2l2-3v2l1-1l3,3l-1-3v2L146,408z"/>
</g>
<rect id="_x3C_スライス_x3E_" x="116" y="186" class="st3" width="108" height="108"/>
</svg>
